<?xml version="1.0" encoding="UTF-8" standalone="no"?> <svg xmlns="http://www.w3.org/2000/svg" xmlns:xlink="http://www.w3.org/1999/xlink" class="icon" viewBox="0 0 1027 1024" version="1.1" width="24.0703125" height="24"><path d="M1000.45977 882.758621l-247.172414-247.172414c0 0-5.885057-5.885057-11.770115-5.885057 41.195402-64.735632 64.735632-141.241379 64.735632-223.632184 0-223.632184-182.436782-406.068966-406.068966-406.068966C182.436782 0 0 182.436782 0 406.068966c0 223.632184 182.436782 406.068966 406.068966 406.068966 82.390805 0 158.896552-23.54023 223.632184-64.735632 0 5.885057 5.885057 5.885057 5.885057 11.770115L882.758621 1000.45977c17.655172 17.655172 41.195402 23.54023 58.850575 23.54023 23.54023 0 41.195402-5.885057 58.850575-23.54023C1035.770115 965.149425 1035.770115 912.183908 1000.45977 882.758621M406.068966 682.666667c-153.011494 0-276.597701-123.586207-276.597701-276.597701 0-153.011494 123.586207-276.597701 276.597701-276.597701s276.597701 123.586207 276.597701 276.597701C682.666667 559.08046 559.08046 682.666667 406.068966 682.666667" fill="#000000"></path></svg> 